PathFileType	4	(X/Y/Z)	C:/Users/opensim2020/Desktop/walking_exp_matlab/subject01_walking13_straight_04.trc																																																																																																																												
DataRate	CameraRate	NumFrames	NumMarkers	Units	OrigDataRate	OrigDataStartFrame	OrigNumFrames																																																																																																																								
100	100	7	42	mm	100	2142	135																																																																																																																								
Frame#	Time	LFHD			RFHD			LBHD			RBHD			C7			T10			CLAV			STRN			RBAK			LSHO			LUPA			LELB			LFRM			LWRA			LWRB			LFIN			RSHO			RUPA			RELB			RFRM			RWRA			RWRB			RFIN			LASI			RASI			LPSI			RPSI			LTHI			LKNE			LTIB			LANK			LHEE			LTOE			RTHI			RKNE			RTIB			RANK			RHEE			RTOE			*39			*40			*41		
		X1	Y1	Z1	X2	Y2	Z2	X3	Y3	Z3	X4	Y4	Z4	X5	Y5	Z5	X6	Y6	Z6	X7	Y7	Z7	X8	Y8	Z8	X9	Y9	Z9	X10	Y10	Z10	X11	Y11	Z11	X12	Y12	Z12	X13	Y13	Z13	X14	Y14	Z14	X15	Y15	Z15	X16	Y16	Z16	X17	Y17	Z17	X18	Y18	Z18	X19	Y19	Z19	X20	Y20	Z20	X21	Y21	Z21	X22	Y22	Z22	X23	Y23	Z23	X24	Y24	Z24	X25	Y25	Z25	X26	Y26	Z26	X27	Y27	Z27	X28	Y28	Z28	X29	Y29	Z29	X30	Y30	Z30	X31	Y31	Z31	X32	Y32	Z32	X33	Y33	Z33	X34	Y34	Z34	X35	Y35	Z35	X36	Y36	Z36	X37	Y37	Z37	X38	Y38	Z38	X39	Y39	Z39	X40	Y40	Z40	X41	Y41	Z41	X42	Y42	Z42
																																																																																																																															
34	0.33	-555.63568	1663.43445	-1558.93835	-540.36884	1676.15649	-1447.74316	-674.01721	1626.37415	-1546.81311	-660.82507	1638.44214	-1427.63831	-721.35846	1435.5354	-1493.59631	-763.43011	1142.83777	-1470.74207	-580.18665	1365.36023	-1483.19702	-538.80475	1210.99377	-1478.37231	-783.42426	1245.48389	-1407.12488	-634.98645	1386.09021	-1647.54321	-663.39978	1204.68469	-1731.30969	-670.98676	1050.82898	-1738.91772	-600.06873	956.54938	-1756.84009	-488.45834	876.3222	-1730.61877	-538.07452	852.17126	-1754.43311	-471.53659	807.60834	-1769.28821	-649.05396	1400.65088	-1335.81787	-732.06525	1218.20239	-1226.22253	-748.11365	1093.27747	-1213.38074	-723.15558	973.08356	-1182.87915	-645.76404	856.72888	-1207.83875	-686.86493	856.75226	-1165.43359	-642.23877	787.16998	-1162.17725	-583.07397	937.9339	-1569.35901	-590.87579	939.86591	-1352.75427	-770.47919	950.29352	-1519.48401	-770.59363	948.63721	-1374.08643	-613.40594	604.48053	-1617.83215	-624.43414	468.99323	-1599.9696	-691.96558	289.487	-1605.48206	-738.58862	77.43523	-1549.82935	-783.90106	50.99353	-1495.32031	-593.94196	35.11324	-1559.7561	-560.54382	612.02118	-1291.11145	-522.34088	459.591	-1310.46875	-659.16034	350.30972	-1312.12366	-799.13434	199.37053	-1362.15479	-856.07935	197.21666	-1416.99963	-723.88031	77.98854	-1356.56104	-550.09943	1709.01709	-1472.5177	-1973.06104	1023.82843	3102.13257	-2012.61255	1022.16461	3140.61572
35	0.34	-542.83411	1663.95056	-1558.89807	-527.63135	1676.15247	-1447.54553	-661.30725	1627.1947	-1547.01904	-648.17078	1638.73291	-1427.72046	-709.06403	1435.93518	-1494.34924	-751.26917	1143.26489	-1471.82898	-567.88385	1365.67065	-1483.86169	-526.54132	1211.47937	-1479.63794	-771.0932	1245.73438	-1408.27173	-622.72321	1387.06116	-1648.32788	-649.53461	1205.9071	-1732.88721	-654.31934	1051.67627	-1741.24915	-579.74799	960.05414	-1759.0321	-464.95273	884.52844	-1732.59717	-513.52826	858.36285	-1756.40588	-445.24332	816.56024	-1771.26794	-636.48712	1400.71667	-1336.53015	-720.53241	1218.43347	-1227.44812	-737.21423	1093.85669	-1214.7334	-715.37805	973.44678	-1183.33594	-641.14154	854.82758	-1207.06604	-682.33752	856.20892	-1164.84155	-639.94543	785.40363	-1160.92053	-571.9704	938.1441	-1570.98022	-578.18469	940.79175	-1354.46765	-758.86963	950.79602	-1519.47266	-757.94244	949.23132	-1373.98779	-607.43469	604.29163	-1618.04004	-621.57617	469.02914	-1600.76733	-691.02582	290.31268	-1605.45618	-738.31354	78.32593	-1549.67603	-784.00861	52.66007	-1495.25818	-593.95667	35.08095	-1559.94482	-542.64325	614.69897	-1292.31799	-502.01364	462.72861	-1312.72388	-633.7359	346.67914	-1314.38232	-766.4649	189.37881	-1364.3418	-823.44019	183.4986	-1419.5083	-683.79572	74.01044	-1357.34485	-537.09009	1709.17273	-1472.15918	-1973.07397	1023.31415	3101.92432	-2012.51733	1022.18262	3140.70752
36	0.35	-529.94287	1664.23706	-1558.6283	-514.88129	1676.0376	-1447.32349	-648.57129	1627.76721	-1547.12183	-635.57025	1638.88513	-1427.7323	-696.67969	1436.18823	-1495.02429	-739.09991	1143.53271	-1472.81213	-555.54065	1365.97632	-1484.64197	-514.26563	1211.65759	-1480.84033	-758.72638	1245.81787	-1409.42224	-610.39453	1387.88696	-1649.02979	-635.59802	1206.95679	-1734.46838	-637.84918	1052.31091	-1743.40015	-559.60217	963.64459	-1760.92578	-441.90445	893.02374	-1734.58838	-489.36331	864.85236	-1758.16406	-419.33524	825.7384	-1772.99011	-624.10626	1400.672	-1337.32422	-709.12512	1218.5636	-1228.63098	-726.30109	1094.3501	-1215.96106	-707.56226	973.82294	-1183.82813	-636.58563	853.01996	-1206.14661	-677.79523	855.80048	-1164.33179	-637.40582	783.86792	-1159.74426	-560.83936	938.0036	-1572.47083	-565.05853	941.58844	-1355.87561	-747.32617	951.13159	-1519.46875	-745.25793	949.59735	-1373.82104	-601.16492	604.12683	-1618.43079	-618.60864	469.10349	-1601.50562	-689.78833	291.10742	-1605.35754	-737.97516	79.10458	-1549.35901	-783.19855	53.43046	-1494.3103	-594.13654	35.21958	-1560.34314	-525.20685	617.17426	-1293.42834	-482.42804	465.58292	-1315.29712	-608.45557	342.46011	-1316.36938	-733.16162	179.14719	-1366.55078	-789.54419	169.10371	-1421.89233	-643.15192	69.89721	-1357.93909	-524.22101	1709.14575	-1471.78357	-1973.1499	1023.42657	3101.95483	-2012.49634	1022.08801	3140.82251
37	0.36	-517.16125	1664.40161	-1558.44873	-502.17105	1675.80481	-1447.03308	-635.84686	1628.19202	-1547.23914	-622.94446	1638.79968	-1427.76477	-684.31403	1436.28333	-1495.6377	-726.93268	1143.6792	-1473.75574	-543.17737	1366.05237	-1485.32825	-502.01706	1211.64758	-1481.91357	-746.37048	1245.7373	-1410.47827	-598.01959	1388.50842	-1649.66028	-621.65271	1207.80505	-1735.85754	-621.53259	1053.09668	-1745.58972	-539.776	967.50836	-1763.06433	-419.29352	901.69958	-1736.41223	-465.4989	871.66644	-1760.17261	-393.8197	835.15936	-1774.57593	-611.66272	1400.39319	-1337.87598	-697.62073	1218.46399	-1229.78662	-715.28027	1094.62756	-1217.08142	-699.76508	974.11554	-1184.16772	-631.98029	851.32153	-1204.99536	-673.35394	855.50562	-1163.81824	-635.06305	782.31842	-1158.46814	-549.89331	937.75458	-1573.90723	-552.5144	942.1795	-1357.38354	-735.8053	951.26245	-1519.41052	-732.72284	949.78229	-1373.68799	-594.85724	603.97021	-1618.8833	-615.51129	469.29742	-1602.13867	-688.1474	291.98099	-1605.11047	-737.5271	79.82594	-1548.69287	-782.77863	54.78518	-1493.56494	-593.44977	35.00087	-1559.96899	-508.16663	619.21405	-1294.42017	-463.56143	467.96619	-1317.60632	-582.97461	337.91965	-1318.40674	-699.11401	168.38454	-1368.44836	-754.58105	154.25995	-1424.26147	-601.96918	66.02299	-1357.90503	-511.39929	1709.04626	-1471.29797	-1972.97998	1023.66187	3102.04517	-2012.48608	1021.97461	3140.75977
38	0.37	-504.27243	1664.44299	-1558.14856	-489.49887	1675.44214	-1446.66553	-623.05872	1628.31714	-1547.19226	-610.30511	1638.56482	-1427.72302	-671.79633	1436.21289	-1496.16736	-714.78827	1143.7002	-1474.43213	-530.65857	1365.94482	-1485.89526	-489.68585	1211.41077	-1482.86743	-733.93237	1245.5127	-1411.43176	-585.48181	1388.99902	-1650.22461	-607.69922	1208.42969	-1737.05542	-605.28711	1053.83264	-1747.69751	-520.02356	971.3681	-1764.82788	-397.14734	910.42578	-1738.04761	-442.08517	878.53705	-1761.77478	-368.86575	844.82928	-1775.97375	-599.23535	1400.07458	-1338.37939	-686.04901	1218.16248	-1230.80383	-704.30469	1094.85376	-1218.14575	-691.83289	974.39471	-1184.5188	-627.00995	849.5813	-1203.99097	-668.71777	855.20203	-1163.07666	-632.42957	781.01605	-1157.11365	-538.89825	937.35016	-1575.20752	-539.94202	942.30768	-1358.69006	-724.34515	951.15643	-1519.31287	-720.1524	949.69348	-1373.52673	-588.80957	603.67871	-1619.16541	-612.33563	469.39127	-1602.47498	-686.3299	292.70856	-1604.6333	-736.82898	80.73072	-1547.9408	-782.16498	56.17492	-1492.66711	-593.30988	34.87534	-1559.81067	-491.51379	620.99805	-1295.46863	-445.40411	469.91757	-1319.99731	-557.85803	332.80545	-1320.37	-663.92865	157.23563	-1370.13245	-718.91931	139.10942	-1426.46594	-559.81024	62.50897	-1357.74609	-498.67102	1708.70459	-1470.77588	-1973.05579	1023.91357	3102.04858	-2012.45056	1022.0412	3140.84399
39	0.38	-491.48734	1664.3656	-1557.85266	-476.83554	1675.00916	-1446.31995	-610.30078	1628.30261	-1547.16638	-597.72516	1638.21924	-1427.63721	-659.21222	1436.07056	-1496.62634	-702.50964	1143.64221	-1475.09399	-518.10229	1365.68164	-1486.36768	-477.3432	1210.97388	-1483.80457	-721.53314	1245.16663	-1412.29102	-572.83209	1389.26965	-1650.65234	-593.69714	1208.95654	-1738.27539	-589.03564	1054.47583	-1749.81653	-500.70523	975.12476	-1766.64233	-375.53296	919.11969	-1739.46716	-419.09467	885.42523	-1763.19763	-344.46521	854.66663	-1777.25549	-586.8114	1399.5614	-1338.78625	-674.53735	1217.69946	-1231.8175	-693.35498	1094.8457	-1219.13818	-683.65887	974.65442	-1184.81323	-621.82507	848.06091	-1202.90039	-663.64594	855.0365	-1162.65002	-629.2381	779.79132	-1155.97559	-527.83105	936.72003	-1576.3446	-527.2652	942.33093	-1359.95227	-712.91925	950.83691	-1519.12073	-707.52118	949.33405	-1373.29529	-583.01929	603.28333	-1619.24609	-609.09888	469.49991	-1602.7583	-684.41406	293.52454	-1604.15295	-736.58002	81.91379	-1547.26257	-781.59528	57.67252	-1491.75867	-593.28534	34.79114	-1559.74841	-475.40103	622.5451	-1296.62561	-427.81375	471.47348	-1322.15369	-532.63849	327.98428	-1322.26904	-627.99579	146.06502	-1371.50281	-681.4502	123.94274	-1428.099	-517.52014	59.31268	-1357.65002	-486.36481	1707.96814	-1470.53076	-1973.17102	1023.39368	3101.94019	-2012.44153	1022.11011	3140.69336
40	0.39	-478.63712	1664.09631	-1557.43286	-464.28751	1674.41821	-1445.88879	-597.48273	1628.09778	-1547.0686	-585.11493	1637.6062	-1427.41895	-646.54834	1435.79639	-1496.94922	-690.2453	1143.40088	-1475.46362	-505.42224	1365.1853	-1486.6936	-464.88431	1210.45483	-1484.60498	-709.07294	1244.7196	-1413.02478	-560.09094	1389.3623	-1650.96399	-579.66418	1209.28015	-1739.34485	-572.82367	1055.03894	-1751.90723	-481.5051	978.73309	-1768.26587	-354.4343	927.84595	-1740.7572	-396.54391	892.21692	-1764.36938	-320.57751	864.47827	-1778.33569	-574.34766	1398.83289	-1339.17151	-662.94812	1217.1239	-1232.82568	-682.4209	1094.77612	-1220.03564	-675.3822	974.84827	-1185.01855	-616.6781	846.57214	-1202.02295	-658.12476	854.84821	-1161.86804	-625.92975	778.64423	-1154.67737	-516.82416	935.94104	-1577.45898	-514.35504	942.26447	-1361.0387	-701.43262	950.22681	-1518.75476	-694.91174	948.81732	-1373.0603	-577.32379	603.07611	-1619.35193	-605.66736	469.5498	-1602.88452	-682.60986	294.47531	-1603.76306	-736.25861	83.35111	-1546.50012	-780.95886	59.30989	-1490.72266	-593.26672	34.91119	-1559.71484	-459.60217	623.59607	-1297.67017	-411.3103	472.24619	-1324.33484	-507.75922	323.02338	-1323.73962	-591.16138	135.01024	-1372.62036	-642.59216	109.22614	-1429.37659	-474.76044	56.78453	-1357.7749	-473.68405	1707.40076	-1470.03247	-1972.99365	1023.83191	3102.03638	-2012.59424	1022.21643	3140.68994
